ply
format ascii 1.0
comment Unit: mm
element vertex 130
property float x
property float y
property float z
element face 252
property list uchar int vertex_indices
end_header
0.000000 0.000000 0.000000
0.000000 0.000000 0.000000
0.000000 0.000000 300.000000
0.000000 0.282608 0.408635
0.000000 1.667065 2.050295
0.000000 3.264373 3.428564
0.000000 5.185568 4.619434
0.000000 7.612190 5.646870
0.000000 10.791639 6.471053
0.000000 15.423992 7.027716
0.000000 23.113783 7.138774
0.000000 32.089386 7.202372
0.000000 36.905949 7.807061
0.000000 39.720451 8.627102
0.000000 41.495872 9.460896
0.000000 43.017403 10.487944
0.000000 44.468323 11.845335
0.000000 45.965336 13.747692
0.000000 47.566021 16.513004
0.000000 49.928917 22.291348
0.000000 50.000000 250.000000
0.000000 50.000000 300.000000
0.000000 52.412289 29.778585
0.000000 54.903214 36.201397
0.000000 58.286110 42.139271
0.000000 58.682407 249.240387
0.000000 62.381256 47.404900
0.000000 67.101006 246.984634
0.000000 67.226700 52.564137
0.000000 74.782928 60.165367
0.000000 75.000000 243.301285
0.000000 82.139381 238.302231
0.000000 82.238976 68.456230
0.000000 88.302223 232.139389
0.000000 88.333084 76.384750
0.000000 93.241936 84.146492
0.000000 93.301277 225.000015
0.000000 96.984634 217.101013
0.000000 97.071938 91.863693
0.000000 99.240387 208.682419
0.000000 100.000000 100.000008
0.000000 100.000000 200.000000
0.000000 180.000000 100.000008
0.000000 180.000000 200.000000
75.000000 100.000000 150.000000
75.000000 100.000000 200.000000
75.000000 180.000000 150.000000
75.000000 180.000000 200.000000
75.379807 100.000000 145.658798
75.379807 180.000000 145.658798
76.507683 100.000000 141.449509
76.507683 180.000000 141.449509
78.349365 100.000000 137.500000
78.349365 180.000000 137.500000
80.848892 100.000000 133.930313
80.848892 180.000000 133.930313
83.930313 100.000000 130.848892
83.930313 180.000000 130.848892
87.500000 100.000000 128.349365
87.500000 180.000000 128.349365
91.449501 100.000000 126.507690
91.449501 180.000000 126.507690
95.658798 100.000000 125.379814
95.658798 180.000000 125.379814
100.000000 100.000000 125.000008
100.000000 180.000000 125.000008
104.341209 100.000000 125.379814
104.341209 180.000000 125.379814
108.550507 100.000000 126.507690
108.550507 180.000000 126.507690
112.500000 100.000000 128.349365
112.500000 180.000000 128.349365
116.069695 100.000000 130.848892
116.069695 180.000000 130.848892
119.151115 100.000000 133.930313
119.151115 180.000000 133.930313
121.650635 100.000000 137.500000
121.650635 180.000000 137.500000
123.492317 100.000000 141.449509
123.492317 180.000000 141.449509
124.620193 100.000000 145.658798
124.620193 180.000000 145.658798
125.000000 100.000000 150.000000
125.000000 100.000000 200.000000
125.000000 180.000000 150.000000
125.000000 180.000000 200.000000
200.000000 0.000000 0.000000
200.000000 0.000000 0.000000
200.000000 0.000000 300.000000
200.000000 0.282608 0.408635
200.000000 1.667065 2.050295
200.000000 3.264373 3.428564
200.000000 5.185568 4.619434
200.000000 7.612190 5.646870
200.000000 10.791639 6.471053
200.000000 15.423992 7.027716
200.000000 23.113783 7.138774
200.000000 32.089386 7.202372
200.000000 36.905949 7.807061
200.000000 39.720451 8.627102
200.000000 41.495872 9.460896
200.000000 43.017403 10.487944
200.000000 44.468323 11.845335
200.000000 45.965336 13.747692
200.000000 47.566021 16.513004
200.000000 49.928917 22.291348
200.000000 50.000000 250.000000
200.000000 50.000000 300.000000
200.000000 52.412289 29.778585
200.000000 54.903214 36.201397
200.000000 58.286110 42.139271
200.000000 58.682407 249.240387
200.000000 62.381256 47.404900
200.000000 67.101006 246.984634
200.000000 67.226700 52.564137
200.000000 74.782928 60.165367
200.000000 75.000000 243.301285
200.000000 82.139381 238.302231
200.000000 82.238976 68.456230
200.000000 88.302223 232.139389
200.000000 88.333084 76.384750
200.000000 93.241936 84.146492
200.000000 93.301277 225.000015
200.000000 96.984634 217.101013
200.000000 97.071938 91.863693
200.000000 99.240387 208.682419
200.000000 100.000000 100.000008
200.000000 100.000000 200.000000
200.000000 180.000000 100.000008
200.000000 180.000000 200.000000
3 1 20 25
3 1 25 27
3 1 30 31
3 1 31 33
3 1 36 37
3 1 37 39
3 2 1 88
3 2 20 1
3 2 21 20
3 2 107 21
3 4 3 41
3 5 4 41
3 5 41 6
3 6 23 7
3 6 24 23
3 11 13 12
3 11 14 13
3 11 16 15
3 11 17 16
3 15 14 11
3 18 11 19
3 18 17 11
3 19 10 22
3 19 11 10
3 21 106 20
3 22 9 23
3 22 10 9
3 23 8 7
3 23 9 8
3 27 30 1
3 28 26 41
3 33 36 1
3 34 32 41
3 40 38 41
3 40 128 126
3 41 1 39
3 41 3 1
3 41 24 6
3 41 26 24
3 41 29 28
3 41 32 29
3 41 35 34
3 41 38 35
3 41 42 40
3 42 46 49
3 42 47 46
3 42 51 53
3 42 53 55
3 42 57 59
3 42 59 61
3 42 63 65
3 42 65 128
3 42 128 40
3 43 42 41
3 43 47 42
3 44 47 45
3 44 76 48
3 44 78 76
3 44 82 80
3 44 83 82
3 45 39 83
3 45 41 39
3 45 43 41
3 45 83 44
3 46 44 49
3 46 47 44
3 47 43 45
3 49 44 48
3 49 48 51
3 49 51 42
3 51 48 50
3 51 50 53
3 53 50 52
3 53 52 55
3 54 52 76
3 55 52 54
3 55 54 57
3 55 57 42
3 57 54 56
3 57 56 59
3 58 62 60
3 58 64 62
3 58 68 66
3 58 70 68
3 59 56 58
3 59 58 61
3 61 58 60
3 61 60 63
3 61 63 42
3 63 60 62
3 63 62 65
3 65 62 64
3 65 64 67
3 66 64 58
3 67 64 66
3 67 66 69
3 69 66 68
3 69 68 71
3 71 68 70
3 71 70 73
3 71 73 128
3 72 70 58
3 73 70 72
3 73 72 75
3 74 58 76
3 74 72 58
3 75 72 74
3 75 74 77
3 76 50 48
3 76 52 50
3 76 56 54
3 76 58 56
3 77 74 76
3 77 76 79
3 77 79 128
3 79 76 78
3 79 78 81
3 80 78 44
3 81 78 80
3 81 80 84
3 81 128 79
3 83 39 125
3 83 84 82
3 84 80 82
3 84 128 81
3 84 129 128
3 85 84 83
3 85 129 84
3 86 0 3
3 86 3 89
3 87 113 111
3 87 116 113
3 87 119 117
3 87 122 119
3 87 125 123
3 87 127 125
3 88 1 87
3 88 107 2
3 89 3 4
3 89 4 90
3 89 127 87
3 90 4 5
3 90 5 91
3 90 121 124
3 90 124 126
3 90 127 89
3 91 5 6
3 91 6 92
3 91 109 110
3 91 110 112
3 91 114 115
3 91 115 118
3 91 120 121
3 91 121 90
3 92 6 7
3 92 7 93
3 92 108 109
3 92 109 91
3 93 7 8
3 93 8 94
3 93 104 105
3 93 105 108
3 93 108 92
3 94 8 9
3 94 9 95
3 94 103 104
3 94 104 93
3 95 9 10
3 95 10 96
3 95 96 102
3 96 10 11
3 96 11 97
3 97 11 12
3 97 12 98
3 98 12 13
3 98 13 99
3 99 13 14
3 99 14 100
3 99 97 98
3 100 14 15
3 100 15 101
3 100 97 99
3 101 15 16
3 101 16 102
3 101 97 100
3 102 16 17
3 102 17 103
3 102 94 95
3 102 96 97
3 102 97 101
3 102 103 94
3 103 17 18
3 103 18 104
3 104 18 19
3 104 19 105
3 105 19 22
3 105 22 108
3 106 87 111
3 106 88 87
3 107 88 106
3 107 106 21
3 108 22 23
3 108 23 109
3 109 23 24
3 109 24 110
3 110 24 26
3 110 26 112
3 111 20 106
3 111 25 20
3 112 26 28
3 112 28 114
3 112 114 91
3 113 25 111
3 113 27 25
3 114 28 29
3 114 29 115
3 115 29 32
3 115 32 118
3 116 27 113
3 116 30 27
3 117 30 116
3 117 31 30
3 117 116 87
3 118 32 34
3 118 34 120
3 118 120 91
3 119 31 117
3 119 33 31
3 120 34 35
3 120 35 121
3 121 35 38
3 121 38 124
3 122 33 119
3 122 36 33
3 123 36 122
3 123 37 36
3 123 122 87
3 124 38 40
3 124 40 126
3 125 37 123
3 125 39 37
3 125 127 83
3 126 127 90
3 126 129 127
3 127 85 83
3 128 65 67
3 128 67 69
3 128 69 71
3 128 73 75
3 128 75 77
3 128 129 126
3 129 85 127
